<?xml version="1.0" encoding="UTF-8"?>
<!DOCTYPE svg PUBLIC "-//W3C//DTD SVG 1.1//EN" "http://www.w3.org/Graphics/SVG/1.1/DTD/svg11.dtd">
<svg xmlns="http://www.w3.org/2000/svg" version="1.1" width="1004px" height="943px" style="shape-rendering:geometricPrecision; text-rendering:geometricPrecision; image-rendering:optimizeQuality; fill-rule:evenodd; clip-rule:evenodd" xmlns:xlink="http://www.w3.org/1999/xlink">
<g><path style="opacity:1" fill="#fefefe" d="M -0.5,-0.5 C 334.167,-0.5 668.833,-0.5 1003.5,-0.5C 1003.5,313.833 1003.5,628.167 1003.5,942.5C 668.833,942.5 334.167,942.5 -0.5,942.5C -0.5,628.167 -0.5,313.833 -0.5,-0.5 Z"/></g>
<g><path style="opacity:1" fill="#fe5a5f" d="M 864.5,416.5 C 864.44,415.957 864.107,415.624 863.5,415.5C 862.5,537.832 862.167,660.165 862.5,782.5C 861.715,789.876 860.715,797.209 859.5,804.5C 858.076,806.515 857.41,808.848 857.5,811.5C 836.616,873.891 793.616,909.391 728.5,918C 576.167,918.667 423.833,918.667 271.5,918C 260.749,917.103 250.415,914.937 240.5,911.5C 238.485,910.076 236.152,909.41 233.5,909.5C 178.448,887.449 146.448,847.115 137.5,788.5C 137.833,664.165 137.5,539.832 136.5,415.5C 135.893,415.624 135.56,415.957 135.5,416.5C 134.833,416.5 134.5,416.833 134.5,417.5C 114.04,434.122 93.7068,450.955 73.5,468C 52.051,477.849 34.8844,473.016 22,453.5C 16.0392,440.482 16.7058,427.815 24,415.5C 27.8333,411.667 31.6667,407.833 35.5,404C 181.459,282.376 327.126,160.376 472.5,38C 488.694,23.9833 505.694,22.9833 523.5,35C 673.667,161.167 823.833,287.333 974,413.5C 984.801,430.545 983.801,446.879 971,462.5C 956.541,474.088 941.041,475.588 924.5,467C 904.309,450.302 884.309,433.469 864.5,416.5 Z"/></g>
<g><path style="opacity:1" fill="#fefefe" d="M 352.5,558.5 C 351.501,653.665 351.167,748.999 351.5,844.5C 326.5,844.5 301.5,844.5 276.5,844.5C 247.658,840.923 227.325,825.923 215.5,799.5C 215.771,797.62 215.104,796.287 213.5,795.5C 212.85,793.565 212.517,791.565 212.5,789.5C 212.073,786.99 211.407,784.657 210.5,782.5C 209.176,639.513 209.176,496.513 210.5,353.5C 306.833,272.833 403.167,192.167 499.5,111.5C 595.829,192.325 692.329,272.992 789,353.5C 789.667,496.833 789.667,640.167 789,783.5C 780.358,817.927 758.524,838.427 723.5,845C 698.169,845.5 672.836,845.667 647.5,845.5C 647.667,748.499 647.5,651.499 647,554.5C 642.724,539.224 632.891,529.724 617.5,526C 539.167,525.333 460.833,525.333 382.5,526C 365.31,530.352 355.31,541.185 352.5,558.5 Z"/></g>
<g><path style="opacity:1" fill="#d76367" d="M 135.5,416.5 C 135.56,415.957 135.893,415.624 136.5,415.5C 137.5,539.832 137.833,664.165 137.5,788.5C 136.523,785.713 136.19,782.713 136.5,779.5C 136.833,658.332 136.5,537.332 135.5,416.5 Z"/></g>
<g><path style="opacity:1" fill="#d0797c" d="M 864.5,416.5 C 863.833,538.5 863.167,660.5 862.5,782.5C 862.167,660.165 862.5,537.832 863.5,415.5C 864.107,415.624 864.44,415.957 864.5,416.5 Z"/></g>
<g><path style="opacity:1" fill="#e8e7e7" d="M 134.5,417.5 C 134.5,416.833 134.833,416.5 135.5,416.5C 136.5,537.332 136.833,658.332 136.5,779.5C 135.833,658.833 135.167,538.167 134.5,417.5 Z"/></g>
<g><path style="opacity:1" fill="#fefefe" d="M 425.5,599.5 C 474.833,599.5 524.167,599.5 573.5,599.5C 573.167,681.002 573.501,762.335 574.5,843.5C 525.178,845.495 475.511,846.162 425.5,845.5C 425.5,763.5 425.5,681.5 425.5,599.5 Z"/></g>
<g><path style="opacity:1" fill="#e1bfc0" d="M 425.5,599.5 C 474.997,598.501 524.664,598.168 574.5,598.5C 574.5,680.167 574.5,761.833 574.5,843.5C 573.501,762.335 573.167,681.002 573.5,599.5C 524.167,599.5 474.833,599.5 425.5,599.5 Z"/></g>
<g><path style="opacity:1" fill="#d77c7e" d="M 210.5,782.5 C 211.407,784.657 212.073,786.99 212.5,789.5C 211.883,789.389 211.383,789.056 211,788.5C 210.505,786.527 210.338,784.527 210.5,782.5 Z"/></g>
<g><path style="opacity:1" fill="#d78a8c" d="M 213.5,795.5 C 215.104,796.287 215.771,797.62 215.5,799.5C 214.326,798.486 213.66,797.153 213.5,795.5 Z"/></g>
<g><path style="opacity:1" fill="#e0b3b3" d="M 859.5,804.5 C 859.829,807.228 859.163,809.562 857.5,811.5C 857.41,808.848 858.076,806.515 859.5,804.5 Z"/></g>
<g><path style="opacity:1" fill="#ceb4b5" d="M 352.5,558.5 C 352.5,654.167 352.5,749.833 352.5,845.5C 326.995,845.831 301.661,845.498 276.5,844.5C 301.5,844.5 326.5,844.5 351.5,844.5C 351.167,748.999 351.501,653.665 352.5,558.5 Z"/></g>
<g><path style="opacity:1" fill="#dc7475" d="M 233.5,909.5 C 236.152,909.41 238.485,910.076 240.5,911.5C 237.848,911.59 235.515,910.924 233.5,909.5 Z"/></g>
</svg>
