<?xml version="1.0" encoding="UTF-8"?>
<!DOCTYPE svg PUBLIC "-//W3C//DTD SVG 1.1//EN" "http://www.w3.org/Graphics/SVG/1.1/DTD/svg11.dtd">
<svg xmlns="http://www.w3.org/2000/svg" version="1.1" width="4528px" height="1133px" style="shape-rendering:geometricPrecision; text-rendering:geometricPrecision; image-rendering:optimizeQuality; fill-rule:evenodd; clip-rule:evenodd" xmlns:xlink="http://www.w3.org/1999/xlink">
<g><path style="opacity:1" fill="#fefefe" d="M -0.5,-0.5 C 1508.83,-0.5 3018.17,-0.5 4527.5,-0.5C 4527.5,377.167 4527.5,754.833 4527.5,1132.5C 3018.17,1132.5 1508.83,1132.5 -0.5,1132.5C -0.5,754.833 -0.5,377.167 -0.5,-0.5 Z"/></g>
<g><path style="opacity:1" fill="#fe5a5f" d="M 1156.5,479.5 C 1156.44,478.957 1156.11,478.624 1155.5,478.5C 1154.5,600.832 1154.17,723.165 1154.5,845.5C 1153.71,852.876 1152.71,860.209 1151.5,867.5C 1150.08,869.515 1149.41,871.848 1149.5,874.5C 1128.62,936.891 1085.62,972.391 1020.5,981C 868.167,981.667 715.833,981.667 563.5,981C 499.93,972.757 457.096,938.59 435,878.5C 432.381,869.67 430.548,860.67 429.5,851.5C 429.833,727.165 429.5,602.832 428.5,478.5C 427.893,478.624 427.56,478.957 427.5,479.5C 426.833,479.5 426.5,479.833 426.5,480.5C 406.04,497.122 385.707,513.955 365.5,531C 344.051,540.849 326.884,536.016 314,516.5C 308.039,503.482 308.706,490.815 316,478.5C 319.833,474.667 323.667,470.833 327.5,467C 473.459,345.376 619.126,223.376 764.5,101C 780.694,86.9833 797.694,85.9833 815.5,98C 965.667,224.167 1115.83,350.333 1266,476.5C 1276.8,493.545 1275.8,509.879 1263,525.5C 1248.54,537.088 1233.04,538.588 1216.5,530C 1196.31,513.302 1176.31,496.469 1156.5,479.5 Z"/></g>
<g><path style="opacity:1" fill="#fefefe" d="M 644.5,621.5 C 643.501,716.665 643.167,811.999 643.5,907.5C 618.5,907.5 593.5,907.5 568.5,907.5C 535.377,902.699 514.043,884.366 504.5,852.5C 504.073,849.99 503.407,847.657 502.5,845.5C 501.176,702.513 501.176,559.513 502.5,416.5C 598.833,335.833 695.167,255.167 791.5,174.5C 887.829,255.325 984.329,335.992 1081,416.5C 1081.67,559.833 1081.67,703.167 1081,846.5C 1072.36,880.927 1050.52,901.427 1015.5,908C 990.169,908.5 964.836,908.667 939.5,908.5C 939.667,811.499 939.5,714.499 939,617.5C 934.724,602.224 924.891,592.724 909.5,589C 831.167,588.333 752.833,588.333 674.5,589C 657.31,593.352 647.31,604.185 644.5,621.5 Z"/></g>
<g><path style="opacity:1" fill="#fe5a5e" d="M 1622.5,351.5 C 1661.16,348.38 1698.49,353.88 1734.5,368C 1769.82,382.991 1795.66,407.824 1812,442.5C 1819.26,459.798 1822.26,477.798 1821,496.5C 1819.44,499.728 1816.94,501.895 1813.5,503C 1791.17,503.667 1768.83,503.667 1746.5,503C 1742.93,502.3 1740.1,500.467 1738,497.5C 1734.05,483.304 1728.71,469.637 1722,456.5C 1711.56,440.01 1696.73,429.51 1677.5,425C 1656.14,419.321 1634.81,419.321 1613.5,425C 1582.27,434.903 1563.77,456.069 1558,488.5C 1556.34,497.091 1555.34,505.757 1555,514.5C 1553.39,553.837 1553.72,593.171 1556,632.5C 1561.98,684.976 1591.48,711.976 1644.5,713.5C 1663.97,713.508 1682.3,709.008 1699.5,700C 1712.59,691.563 1722.09,680.063 1728,665.5C 1731.31,656.273 1734.31,646.939 1737,637.5C 1738.87,635.291 1741.04,633.458 1743.5,632C 1766.44,630.365 1789.44,630.031 1812.5,631C 1816.19,632.089 1819.02,634.255 1821,637.5C 1821.83,681.675 1804.99,717.508 1770.5,745C 1743.2,765.219 1712.53,777.219 1678.5,781C 1639.61,786.013 1601.61,782.346 1564.5,770C 1520.09,752.253 1490.92,720.42 1477,674.5C 1473.77,663.355 1471.44,652.022 1470,640.5C 1467.09,594.859 1466.76,549.192 1469,503.5C 1478.61,410.72 1529.78,360.053 1622.5,351.5 Z"/></g>
<g><path style="opacity:1" fill="#fe5a5e" d="M 2823.5,357.5 C 2845.17,357.333 2866.84,357.5 2888.5,358C 2892.64,359.474 2895.47,362.307 2897,366.5C 2897.5,419.832 2897.67,473.166 2897.5,526.5C 2956.17,526.5 3014.83,526.5 3073.5,526.5C 3073.01,472.441 3073.51,418.441 3075,364.5C 3076.76,361.527 3079.26,359.36 3082.5,358C 3105.23,357.032 3127.9,357.365 3150.5,359C 3153.43,361.264 3155.6,364.098 3157,367.5C 3157.67,500.5 3157.67,633.5 3157,766.5C 3155.9,771.206 3153.06,774.373 3148.5,776C 3128.2,777.593 3107.87,777.927 3087.5,777C 3081.97,776.658 3077.81,774.158 3075,769.5C 3073.51,713.892 3073.01,658.226 3073.5,602.5C 3014.83,602.5 2956.17,602.5 2897.5,602.5C 2897.67,657.501 2897.5,712.501 2897,767.5C 2894.69,773.808 2890.19,776.974 2883.5,777C 2865.17,777.667 2846.83,777.667 2828.5,777C 2821.02,777.021 2816.18,773.521 2814,766.5C 2813.33,633.833 2813.33,501.167 2814,368.5C 2815.63,363.382 2818.79,359.715 2823.5,357.5 Z"/></g>
<g><path style="opacity:1" fill="#fe5a5e" d="M 1994.5,458.5 C 2025.62,457.241 2055.29,463.074 2083.5,476C 2114.99,493.161 2135.82,518.995 2146,553.5C 2151.63,575.636 2154.13,598.136 2153.5,621C 2155.5,656.53 2148.33,690.03 2132,721.5C 2114.66,749.159 2090.16,767.326 2058.5,776C 2047.68,778.97 2036.68,780.97 2025.5,782C 1992.5,785.542 1960.5,781.542 1929.5,770C 1893.12,753.611 1869.62,726.111 1859,687.5C 1853.63,665.672 1851.13,643.505 1851.5,621C 1850.33,592.21 1854.83,564.377 1865,537.5C 1882.75,498.43 1912.58,473.93 1954.5,464C 1967.85,461.167 1981.18,459.333 1994.5,458.5 Z"/></g>
<g><path style="opacity:1" fill="#fe5a5e" d="M 3355.5,458.5 C 3386.62,457.241 3416.29,463.074 3444.5,476C 3475.99,493.161 3496.82,518.995 3507,553.5C 3512.63,575.636 3515.13,598.136 3514.5,621C 3516.5,656.53 3509.33,690.03 3493,721.5C 3475.66,749.159 3451.16,767.326 3419.5,776C 3408.68,778.97 3397.68,780.97 3386.5,782C 3353.5,785.542 3321.5,781.542 3290.5,770C 3254.12,753.611 3230.62,726.111 3220,687.5C 3214.63,665.672 3212.13,643.505 3212.5,621C 3211.33,592.21 3215.83,564.377 3226,537.5C 3243.75,498.43 3273.58,473.93 3315.5,464C 3328.85,461.167 3342.18,459.333 3355.5,458.5 Z"/></g>
<g><path style="opacity:1" fill="#fe5a5e" d="M 3716.5,458.5 C 3748.36,456.393 3775.86,466.06 3799,487.5C 3805.33,494.812 3810.66,502.812 3815,511.5C 3827.58,490.93 3845.08,476.097 3867.5,467C 3902.38,454.414 3936.38,456.414 3969.5,473C 3994.26,488.296 4010.42,510.13 4018,538.5C 4020.42,547.36 4022.09,556.36 4023,565.5C 4024.62,632.151 4024.95,698.817 4024,765.5C 4021.8,772.698 4016.97,776.531 4009.5,777C 3992.83,777.667 3976.17,777.667 3959.5,777C 3953.97,776.658 3949.81,774.158 3947,769.5C 3945.68,707.558 3945.01,645.558 3945,583.5C 3940.28,535.435 3914.44,516.935 3867.5,528C 3850.92,534.917 3840.42,547.084 3836,564.5C 3834.61,569.761 3833.61,575.094 3833,580.5C 3832.67,641.833 3832.33,703.167 3832,764.5C 3830.25,772.253 3825.41,776.42 3817.5,777C 3798.79,777.919 3780.13,777.586 3761.5,776C 3757.94,774.108 3755.44,771.275 3754,767.5C 3753.67,706.833 3753.33,646.167 3753,585.5C 3752.7,567.261 3746.54,551.428 3734.5,538C 3711.18,520.238 3687.18,519.238 3662.5,535C 3648.29,547.942 3640.79,564.109 3640,583.5C 3639.99,645.558 3639.32,707.558 3638,769.5C 3635.11,774.039 3630.95,776.539 3625.5,777C 3608.17,777.667 3590.83,777.667 3573.5,777C 3566.78,776.237 3562.28,772.737 3560,766.5C 3559.01,668.444 3559.34,570.444 3561,472.5C 3563.31,468.42 3566.81,465.92 3571.5,465C 3590.22,464.052 3608.89,464.386 3627.5,466C 3631.06,467.892 3633.56,470.725 3635,474.5C 3635.33,482.5 3635.67,490.5 3636,498.5C 3656.79,473.019 3683.63,459.686 3716.5,458.5 Z"/></g>
<g><path style="opacity:1" fill="#fe5a5e" d="M 4211.5,458.5 C 4247.54,456.59 4280.54,465.423 4310.5,485C 4334.47,503.4 4350.63,527.233 4359,556.5C 4366.92,583.507 4368.92,610.841 4365,638.5C 4363.06,641.106 4360.56,642.939 4357.5,644C 4289.5,644.5 4221.5,644.667 4153.5,644.5C 4153.46,663.336 4157.96,681.003 4167,697.5C 4186.68,724.502 4212.51,732.669 4244.5,722C 4259.52,715.648 4271.52,705.648 4280.5,692C 4282.49,690.249 4284.82,689.249 4287.5,689C 4308.17,688.333 4328.83,688.333 4349.5,689C 4355.49,690.493 4358.82,694.326 4359.5,700.5C 4357.36,712.119 4352.52,722.453 4345,731.5C 4316.85,761.824 4282.02,778.657 4240.5,782C 4203.78,786.437 4169.12,780.104 4136.5,763C 4103.56,742.007 4083.4,712.174 4076,673.5C 4068.19,636.006 4068.86,598.673 4078,561.5C 4098.5,496.182 4143,461.848 4211.5,458.5 Z"/></g>
<g><path style="opacity:1" fill="#fe5a5e" d="M 2196.5,464.5 C 2274.17,464.333 2351.83,464.5 2429.5,465C 2435.96,466.13 2439.8,469.964 2441,476.5C 2441.67,490.833 2441.67,505.167 2441,519.5C 2440.23,523.049 2438.89,526.382 2437,529.5C 2386.54,590.959 2335.71,652.125 2284.5,713C 2338.22,713.013 2391.89,713.679 2445.5,715C 2448.67,716.833 2451.17,719.333 2453,722.5C 2453.67,737.5 2453.67,752.5 2453,767.5C 2450.54,773.487 2446.04,776.654 2439.5,777C 2357.83,777.667 2276.17,777.667 2194.5,777C 2186.59,776.42 2181.75,772.253 2180,764.5C 2179.33,751.833 2179.33,739.167 2180,726.5C 2180.67,721.481 2182.34,716.814 2185,712.5C 2236.5,651.5 2288,590.5 2339.5,529.5C 2290.79,528.981 2242.12,528.148 2193.5,527C 2188.65,525.131 2185.82,521.631 2185,516.5C 2184.33,503.167 2184.33,489.833 2185,476.5C 2186.68,470.319 2190.52,466.319 2196.5,464.5 Z"/></g>
<g><path style="opacity:1" fill="#fe5a5e" d="M 2475.5,464.5 C 2493.5,464.333 2511.5,464.5 2529.5,465C 2536.75,466.246 2541.59,470.413 2544,477.5C 2569.88,541.655 2596.05,605.655 2622.5,669.5C 2650.68,603.145 2678.85,536.812 2707,470.5C 2709.59,466.953 2713.09,465.119 2717.5,465C 2735.17,464.333 2752.83,464.333 2770.5,465C 2779.15,467.123 2782.65,472.623 2781,481.5C 2723.75,616.663 2665.42,751.33 2606,885.5C 2604.05,887.894 2601.55,889.394 2598.5,890C 2579.17,890.667 2559.83,890.667 2540.5,890C 2532.79,885.395 2530.62,878.895 2534,870.5C 2550.22,833.163 2566.06,795.663 2581.5,758C 2543.53,667.752 2505.36,577.585 2467,487.5C 2462.27,476.849 2465.1,469.183 2475.5,464.5 Z"/></g>
<g><path style="opacity:1" fill="#d76367" d="M 427.5,479.5 C 427.56,478.957 427.893,478.624 428.5,478.5C 429.5,602.832 429.833,727.165 429.5,851.5C 428.523,848.713 428.19,845.713 428.5,842.5C 428.833,721.332 428.5,600.332 427.5,479.5 Z"/></g>
<g><path style="opacity:1" fill="#d0797c" d="M 1156.5,479.5 C 1155.83,601.5 1155.17,723.5 1154.5,845.5C 1154.17,723.165 1154.5,600.832 1155.5,478.5C 1156.11,478.624 1156.44,478.957 1156.5,479.5 Z"/></g>
<g><path style="opacity:1" fill="#e8e7e7" d="M 426.5,480.5 C 426.5,479.833 426.833,479.5 427.5,479.5C 428.5,600.332 428.833,721.332 428.5,842.5C 427.833,721.833 427.167,601.167 426.5,480.5 Z"/></g>
<g><path style="opacity:1" fill="#fefffe" d="M 4209.5,514.5 C 4253.05,513.206 4277.88,534.206 4284,577.5C 4284.5,582.823 4284.67,588.156 4284.5,593.5C 4240.83,593.5 4197.17,593.5 4153.5,593.5C 4152.31,567.879 4160.65,546.045 4178.5,528C 4187.72,520.72 4198.05,516.22 4209.5,514.5 Z"/></g>
<g><path style="opacity:1" fill="#fefffe" d="M 1990.5,519.5 C 2036.51,516.332 2062.68,537.666 2069,583.5C 2070.56,605.473 2070.89,627.473 2070,649.5C 2064.73,708.708 2033.23,731.541 1975.5,718C 1960.27,711.107 1949.44,699.94 1943,684.5C 1939.41,675.49 1937.08,666.156 1936,656.5C 1934.48,636.524 1934.15,616.524 1935,596.5C 1935.45,576.491 1941.12,558.157 1952,541.5C 1962.31,529.6 1975.14,522.266 1990.5,519.5 Z"/></g>
<g><path style="opacity:1" fill="#fefffe" d="M 3351.5,519.5 C 3397.51,516.332 3423.68,537.666 3430,583.5C 3431.56,605.473 3431.89,627.473 3431,649.5C 3425.73,708.708 3394.23,731.541 3336.5,718C 3321.27,711.107 3310.44,699.94 3304,684.5C 3300.41,675.49 3298.08,666.156 3297,656.5C 3295.48,636.524 3295.15,616.524 3296,596.5C 3296.45,576.491 3302.12,558.157 3313,541.5C 3323.31,529.6 3336.14,522.266 3351.5,519.5 Z"/></g>
<g><path style="opacity:1" fill="#fefefe" d="M 717.5,662.5 C 766.833,662.5 816.167,662.5 865.5,662.5C 865.167,744.002 865.501,825.335 866.5,906.5C 817.178,908.495 767.511,909.162 717.5,908.5C 717.5,826.5 717.5,744.5 717.5,662.5 Z"/></g>
<g><path style="opacity:1" fill="#e1bfc0" d="M 717.5,662.5 C 766.997,661.501 816.664,661.168 866.5,661.5C 866.5,743.167 866.5,824.833 866.5,906.5C 865.501,825.335 865.167,744.002 865.5,662.5C 816.167,662.5 766.833,662.5 717.5,662.5 Z"/></g>
<g><path style="opacity:1" fill="#d77c7e" d="M 502.5,845.5 C 503.407,847.657 504.073,849.99 504.5,852.5C 503.883,852.389 503.383,852.056 503,851.5C 502.505,849.527 502.338,847.527 502.5,845.5 Z"/></g>
<g><path style="opacity:1" fill="#e0b3b3" d="M 1151.5,867.5 C 1151.83,870.228 1151.16,872.562 1149.5,874.5C 1149.41,871.848 1150.08,869.515 1151.5,867.5 Z"/></g>
<g><path style="opacity:1" fill="#ceb4b5" d="M 644.5,621.5 C 644.5,717.167 644.5,812.833 644.5,908.5C 618.995,908.831 593.661,908.498 568.5,907.5C 593.5,907.5 618.5,907.5 643.5,907.5C 643.167,811.999 643.501,716.665 644.5,621.5 Z"/></g>
</svg>
